<svg width="253" height="329" viewBox="0 0 253 329" fill="none" xmlns="http://www.w3.org/2000/svg">
<g opacity="0.68">
<path fill-rule="evenodd" clip-rule="evenodd" d="M261.578 68.5854C259.664 67.8898 257.61 67.5089 255.462 67.5089C244.989 67.5089 236.508 76.5686 236.508 87.7317C236.508 90.4977 237.021 93.1145 237.97 95.5161C238.204 96.0958 238.453 96.6424 238.717 97.1889C238.764 97.3049 238.826 97.4208 238.889 97.5367C239.418 98.5636 240.04 99.5408 240.725 100.435C244.195 105.023 249.517 107.955 255.462 107.955C265.92 107.955 274.417 98.9114 274.417 87.7317C274.417 78.8376 269.032 71.3017 261.563 68.5854L261.578 68.5854Z" fill="white" fill-opacity="0.62"/>
<path fill-rule="evenodd" clip-rule="evenodd" d="M244.571 37.0172C245.427 37.7625 246.33 38.4085 247.295 38.9716C247.404 39.0378 247.497 39.1041 247.622 39.1538C248.135 39.4354 248.664 39.7003 249.193 39.9488C249.629 40.1641 250.08 40.3628 250.532 40.5616C256.757 43.2944 260.305 45.4144 265.674 49.6545C267.884 51.3935 269.938 53.1492 271.805 54.8385C274.373 57.1573 277.439 60.2048 280.442 63.3682C283.414 66.5648 286.278 69.8111 288.457 72.5439C290.044 74.5479 291.694 76.7342 293.328 79.0695C297.311 84.7836 299.303 88.5598 301.871 95.1849C302.058 95.6652 302.245 96.1455 302.447 96.6092C302.68 97.1889 302.929 97.7355 303.194 98.2821C303.241 98.398 303.303 98.5139 303.365 98.6299C303.894 99.6568 304.517 100.634 305.201 101.528C308.672 106.116 313.994 109.048 319.939 109.048C330.397 109.048 338.893 100.005 338.893 88.8249C338.893 79.9308 333.509 72.3948 326.039 69.6786C325.977 69.662 325.93 69.6289 325.868 69.6123C319.69 66.8298 316.157 64.7098 310.804 60.4367C308.61 58.681 306.555 56.942 304.672 55.2526C302.089 52.9173 299.039 49.8863 296.051 46.7063C293.079 43.5263 290.215 40.28 288.021 37.5307C286.434 35.5266 284.784 33.3403 283.15 31.005C279.15 25.3075 277.143 21.5478 274.528 14.9725C274.497 14.9062 274.482 14.8565 274.466 14.7903C271.93 6.84026 264.833 1.10965 256.476 1.10965C245.988 1.10965 237.475 10.1528 237.475 21.2828C237.475 27.6263 240.23 33.2741 244.54 36.9675L244.571 37.0172Z" fill="white" fill-opacity="0.62"/>
<path fill-rule="evenodd" clip-rule="evenodd" d="M261.586 193.517C259.672 192.821 257.618 192.44 255.47 192.44C244.997 192.44 236.515 201.5 236.515 212.663C236.515 215.429 237.029 218.046 237.978 220.447C238.212 221.027 238.461 221.573 238.725 222.12C238.772 222.236 238.834 222.352 238.896 222.468C239.425 223.495 240.048 224.472 240.733 225.366C244.203 229.954 249.525 232.886 255.47 232.886C265.928 232.886 274.425 223.843 274.425 212.663C274.425 203.769 269.04 196.233 261.57 193.517L261.586 193.517Z" fill="white" fill-opacity="0.62"/>
<path fill-rule="evenodd" clip-rule="evenodd" d="M244.575 161.932C245.431 162.677 246.334 163.323 247.299 163.886C247.408 163.953 247.501 164.019 247.626 164.068C248.139 164.35 248.668 164.615 249.197 164.864C249.633 165.079 250.084 165.278 250.536 165.476C256.76 168.209 260.309 170.329 265.678 174.569C267.887 176.308 269.942 178.064 271.809 179.753C274.377 182.072 277.443 185.119 280.446 188.283C283.418 191.48 286.282 194.726 288.461 197.459C290.048 199.463 291.697 201.649 293.331 203.984C297.315 209.698 299.307 213.475 301.875 220.1C302.062 220.58 302.249 221.06 302.451 221.524C302.684 222.104 302.933 222.65 303.198 223.197C303.245 223.313 303.307 223.429 303.369 223.545C303.898 224.571 304.521 225.549 305.205 226.443C308.676 231.031 313.998 233.962 319.943 233.962C330.4 233.962 338.897 224.919 338.897 213.74C338.897 204.845 333.513 197.31 326.043 194.593C325.981 194.577 325.934 194.544 325.872 194.527C319.694 191.745 316.161 189.625 310.808 185.351C308.613 183.596 306.559 181.857 304.676 180.167C302.093 177.832 299.043 174.801 296.055 171.621C293.082 168.441 290.219 165.195 288.025 162.445C286.437 160.441 284.788 158.255 283.154 155.92C279.154 150.222 277.147 146.463 274.532 139.887C274.501 139.821 274.486 139.771 274.47 139.705C271.934 131.755 264.837 126.024 256.48 126.024C245.992 126.024 237.479 135.067 237.479 146.198C237.479 152.541 240.233 158.189 244.544 161.882L244.575 161.932Z" fill="white" fill-opacity="0.62"/>
<path fill-rule="evenodd" clip-rule="evenodd" d="M183.893 154.595C183.94 154.711 184.002 154.827 184.064 154.943C184.593 155.97 185.216 156.947 185.901 157.841C189.371 162.429 194.693 165.361 200.638 165.361C211.096 165.361 219.593 156.317 219.593 145.138C219.593 136.244 214.208 128.708 206.738 125.991C204.824 125.296 202.77 124.915 200.622 124.915C190.149 124.915 181.668 133.975 181.668 145.138C181.668 147.904 182.181 150.52 183.131 152.922C183.364 153.502 183.613 154.048 183.878 154.595L183.893 154.595Z" fill="white" fill-opacity="0.62"/>
<path fill-rule="evenodd" clip-rule="evenodd" d="M143.324 193.517C141.41 192.821 139.356 192.44 137.208 192.44C126.735 192.44 118.254 201.5 118.254 212.663C118.254 215.429 118.767 218.046 119.717 220.447C119.95 221.027 120.199 221.573 120.463 222.12C120.51 222.236 120.572 222.352 120.635 222.468C121.164 223.495 121.786 224.472 122.471 225.366C125.941 229.954 131.264 232.886 137.208 232.886C147.666 232.886 156.163 223.843 156.163 212.663C156.163 203.769 150.779 196.233 143.309 193.517L143.324 193.517Z" fill="white" fill-opacity="0.62"/>
<path fill-rule="evenodd" clip-rule="evenodd" d="M126.314 161.932C127.17 162.677 128.072 163.323 129.037 163.886C129.146 163.953 129.239 164.019 129.364 164.069C129.877 164.35 130.406 164.615 130.936 164.864C131.371 165.079 131.823 165.278 132.274 165.476C138.499 168.209 142.047 170.329 147.416 174.569C149.626 176.308 151.68 178.064 153.547 179.753C156.115 182.072 159.181 185.12 162.184 188.283C165.157 191.48 168.02 194.726 170.199 197.459C171.786 199.463 173.436 201.649 175.07 203.984C179.054 209.698 181.046 213.475 183.613 220.1C183.8 220.58 183.987 221.06 184.189 221.524C184.423 222.104 184.672 222.65 184.936 223.197C184.983 223.313 185.045 223.429 185.107 223.545C185.636 224.571 186.259 225.549 186.944 226.443C190.414 231.031 195.736 233.962 201.681 233.962C212.139 233.962 220.636 224.919 220.636 213.74C220.636 204.846 215.251 197.31 207.781 194.593C207.719 194.577 207.672 194.544 207.61 194.527C201.432 191.745 197.899 189.625 192.546 185.351C190.352 183.596 188.298 181.857 186.414 180.167C183.831 177.832 180.781 174.801 177.793 171.621C174.821 168.441 171.957 165.195 169.763 162.445C168.176 160.441 166.526 158.255 164.892 155.92C160.893 150.222 158.885 146.463 156.271 139.887C156.24 139.821 156.224 139.771 156.208 139.705C153.672 131.755 146.575 126.024 138.219 126.024C127.73 126.024 119.217 135.068 119.217 146.198C119.217 152.541 121.972 158.189 126.282 161.882L126.314 161.932Z" fill="white" fill-opacity="0.62"/>
<path fill-rule="evenodd" clip-rule="evenodd" d="M65.6353 154.595C65.682 154.711 65.7442 154.827 65.8065 154.943C66.3356 155.97 66.9581 156.947 67.6429 157.841C71.1132 162.429 76.4354 165.361 82.3801 165.361C92.8379 165.361 101.335 156.317 101.335 145.138C101.335 136.244 95.9503 128.708 88.4805 125.991C86.5664 125.296 84.5122 124.915 82.3646 124.915C71.8913 124.915 63.41 133.975 63.41 145.138C63.41 147.904 63.9235 150.52 64.8728 152.922C65.1062 153.502 65.3552 154.048 65.6198 154.595L65.6353 154.595Z" fill="white" fill-opacity="0.62"/>
<path fill-rule="evenodd" clip-rule="evenodd" d="M25.0742 193.517C23.1601 192.821 21.1059 192.44 18.9583 192.44C8.48501 192.44 0.00366867 201.5 0.00366769 212.663C0.00366745 215.429 0.517175 218.046 1.46646 220.447C1.69989 221.027 1.94891 221.573 2.21346 222.12C2.26015 222.236 2.32242 222.352 2.38467 222.468C2.91378 223.495 3.53626 224.472 4.22099 225.366C7.69134 229.954 13.0136 232.886 18.9583 232.886C29.4161 232.886 37.913 223.843 37.913 212.663C37.913 203.769 32.5285 196.233 25.0586 193.517L25.0742 193.517Z" fill="white" fill-opacity="0.62"/>
<path fill-rule="evenodd" clip-rule="evenodd" d="M8.05583 161.932C8.91175 162.677 9.81435 163.323 10.7792 163.886C10.8881 163.953 10.9815 164.019 11.106 164.068C11.6195 164.35 12.1487 164.615 12.6778 164.864C13.1135 165.079 13.5648 165.278 14.0161 165.476C20.2409 168.209 23.7891 170.329 29.1581 174.569C31.3679 176.308 33.4221 178.064 35.2895 179.753C37.8573 182.072 40.923 185.119 43.9265 188.283C46.8989 191.48 49.7623 194.726 51.941 197.459C53.5283 199.463 55.1779 201.649 56.8119 203.984C60.7958 209.698 62.7878 213.475 65.3556 220.1C65.5423 220.58 65.729 221.06 65.9314 221.524C66.1648 222.104 66.4137 222.65 66.6783 223.197C66.725 223.313 66.7873 223.429 66.8495 223.545C67.3786 224.571 68.0011 225.549 68.6858 226.443C72.1562 231.031 77.4784 233.962 83.4232 233.962C93.8809 233.962 102.378 224.919 102.378 213.74C102.378 204.845 96.9933 197.31 89.5235 194.593C89.4613 194.577 89.4146 194.544 89.3523 194.527C83.1742 191.745 79.6416 189.625 74.2882 185.351C72.0939 183.596 70.0397 181.857 68.1567 180.167C65.5734 177.832 62.5232 174.801 59.5353 171.621C56.5629 168.441 53.6995 165.195 51.5052 162.445C49.9179 160.441 48.2684 158.255 46.6343 155.92C42.6349 150.222 40.6273 146.463 38.0129 139.887C37.9818 139.821 37.9662 139.771 37.9507 139.705C35.414 131.755 28.3177 126.024 19.9608 126.024C9.47198 126.024 0.959512 135.067 0.959511 146.198C0.95951 152.541 3.71397 158.189 8.02467 161.882L8.05583 161.932Z" fill="white" fill-opacity="0.62"/>
<path fill-rule="evenodd" clip-rule="evenodd" d="M217.464 279.526C217.51 279.642 217.572 279.758 217.635 279.874C218.164 280.901 218.786 281.878 219.471 282.772C222.941 287.36 228.264 290.292 234.208 290.292C244.666 290.292 253.163 281.248 253.163 270.069C253.163 261.175 247.779 253.639 240.309 250.922C238.395 250.227 236.34 249.846 234.193 249.846C223.719 249.846 215.238 258.906 215.238 270.069C215.238 272.835 215.752 275.452 216.701 277.853C216.934 278.433 217.183 278.979 217.448 279.526L217.464 279.526Z" fill="white" fill-opacity="0.62"/>
<path fill-rule="evenodd" clip-rule="evenodd" d="M176.902 318.448C174.988 317.752 172.934 317.371 170.786 317.371C160.313 317.371 151.832 326.431 151.832 337.594C151.832 340.36 152.345 342.977 153.295 345.379C153.528 345.958 153.777 346.505 154.042 347.051C154.088 347.167 154.15 347.283 154.213 347.399C154.742 348.426 155.364 349.403 156.049 350.298C159.519 354.886 164.842 357.817 170.786 357.817C181.244 357.817 189.741 348.774 189.741 337.594C189.741 328.7 184.357 321.164 176.887 318.448L176.902 318.448Z" fill="white" fill-opacity="0.62"/>
<path fill-rule="evenodd" clip-rule="evenodd" d="M159.884 286.863C160.74 287.608 161.642 288.254 162.607 288.818C162.716 288.884 162.81 288.95 162.934 289C163.448 289.281 163.977 289.546 164.506 289.795C164.942 290.01 165.393 290.209 165.844 290.408C172.069 293.14 175.617 295.26 180.986 299.5C183.196 301.239 185.25 302.995 187.118 304.684C189.685 307.003 192.751 310.051 195.755 313.214C198.727 316.411 201.59 319.657 203.769 322.39C205.356 324.394 207.006 326.58 208.64 328.915C212.624 334.629 214.616 338.406 217.184 345.031C217.37 345.511 217.557 345.991 217.759 346.455C217.993 347.035 218.242 347.581 218.506 348.128C218.553 348.244 218.615 348.36 218.678 348.476C219.207 349.503 219.829 350.48 220.514 351.374C223.984 355.962 229.307 358.894 235.251 358.894C245.709 358.894 254.206 349.85 254.206 338.671C254.206 329.777 248.821 322.241 241.352 319.524C241.289 319.508 241.243 319.475 241.18 319.458C235.002 316.676 231.47 314.556 226.116 310.283C223.922 308.527 221.868 306.788 219.985 305.098C217.402 302.763 214.351 299.732 211.363 296.552C208.391 293.372 205.528 290.126 203.333 287.377C201.746 285.372 200.096 283.186 198.462 280.851C194.463 275.153 192.455 271.394 189.841 264.818C189.81 264.752 189.794 264.702 189.779 264.636C187.242 256.686 180.146 250.956 171.789 250.956C161.3 250.956 152.788 259.999 152.788 271.129C152.788 277.472 155.542 283.12 159.853 286.813L159.884 286.863Z" fill="white" fill-opacity="0.62"/>
<path fill-rule="evenodd" clip-rule="evenodd" d="M99.2135 279.526C99.2601 279.642 99.3224 279.758 99.3847 279.874C99.9138 280.901 100.536 281.878 101.221 282.772C104.691 287.36 110.014 290.292 115.958 290.292C126.416 290.292 134.913 281.248 134.913 270.069C134.913 261.175 129.528 253.639 122.059 250.922C120.145 250.227 118.09 249.846 115.943 249.846C105.469 249.846 96.9881 258.906 96.9881 270.069C96.9881 272.835 97.5016 275.452 98.4509 277.853C98.6844 278.433 98.9334 278.979 99.1979 279.526L99.2135 279.526Z" fill="white" fill-opacity="0.62"/>
<path fill-rule="evenodd" clip-rule="evenodd" d="M58.6484 318.448C56.7343 317.752 54.6801 317.371 52.5325 317.371C42.0592 317.371 33.5779 326.431 33.5779 337.594C33.5779 340.36 34.0914 342.977 35.0407 345.379C35.2742 345.958 35.5232 346.505 35.7877 347.051C35.8344 347.167 35.8966 347.283 35.9589 347.399C36.488 348.426 37.1105 349.403 37.7952 350.298C41.2656 354.886 46.5878 357.817 52.5325 357.817C62.9903 357.817 71.4872 348.774 71.4872 337.594C71.4872 328.7 66.1027 321.164 58.6329 318.448L58.6484 318.448Z" fill="white" fill-opacity="0.62"/>
<path fill-rule="evenodd" clip-rule="evenodd" d="M41.6378 286.863C42.4937 287.608 43.3963 288.254 44.3612 288.818C44.4701 288.884 44.5635 288.95 44.688 289C45.2016 289.281 45.7307 289.546 46.2598 289.795C46.6955 290.01 47.1468 290.209 47.5981 290.408C53.823 293.14 57.3711 295.26 62.74 299.5C64.9499 301.239 67.0041 302.995 68.8715 304.684C71.4393 307.003 74.505 310.051 77.5085 313.214C80.4809 316.411 83.3443 319.657 85.523 322.39C87.1103 324.394 88.7599 326.58 90.394 328.915C94.3779 334.629 96.3698 338.406 98.9375 345.031C99.1243 345.511 99.311 345.991 99.5133 346.455C99.7468 347.035 99.9958 347.581 100.26 348.128C100.307 348.244 100.369 348.36 100.431 348.476C100.961 349.503 101.583 350.48 102.268 351.374C105.738 355.962 111.06 358.894 117.005 358.894C127.463 358.894 135.96 349.85 135.96 338.671C135.96 329.777 130.575 322.241 123.106 319.524C123.043 319.508 122.997 319.475 122.934 319.458C116.756 316.676 113.224 314.556 107.87 310.283C105.676 308.527 103.622 306.788 101.739 305.098C99.1554 302.763 96.1053 299.732 93.1173 296.552C90.145 293.372 87.2815 290.126 85.0873 287.377C83.4999 285.372 81.8503 283.186 80.2163 280.851C76.2169 275.153 74.2093 271.394 71.5949 264.818C71.5638 264.752 71.5482 264.702 71.5327 264.636C68.9961 256.686 61.8997 250.956 53.5428 250.956C43.054 250.956 34.5415 259.999 34.5415 271.129C34.5415 277.472 37.296 283.12 41.6067 286.813L41.6378 286.863Z" fill="white" fill-opacity="0.62"/>
</g>
</svg>
