<svg width="48" height="48" viewBox="0 0 48 48" fill="none" xmlns="http://www.w3.org/2000/svg">
<g clip-path="url(#clip0_682_1452)">
<mask id="mask0_682_1452" style="mask-type:luminance" maskUnits="userSpaceOnUse" x="0" y="0" width="48" height="48">
<path d="M25.4 0H22.6C10.1184 0 0 10.1184 0 22.6V25.4C0 37.8816 10.1184 48 22.6 48H25.4C37.8816 48 48 37.8816 48 25.4V22.6C48 10.1184 37.8816 0 25.4 0Z" fill="white"/>
</mask>
<g mask="url(#mask0_682_1452)">
<path d="M24 48C37.2548 48 48 37.2548 48 24C48 10.7452 37.2548 0 24 0C10.7452 0 0 10.7452 0 24C0 37.2548 10.7452 48 24 48Z" fill="#F62587"/>
<path d="M21.4465 25.0633L21.4308 34.9999L25.4175 35L25.4332 25.0634H28.5904C28.8743 25.0634 29.1134 24.8325 29.1468 24.526L29.496 21.323C29.5356 20.9607 29.2752 20.6422 28.9396 20.6422H25.4175V17.9628C25.4175 16.7478 25.7279 15.9198 27.3308 15.9198L28.815 15.919C29.1243 15.9188 29.3751 15.6462 29.3751 15.3099V12.6091C29.3751 12.2727 29.1241 12 28.8147 12H26.3961C23.4488 12 21.4309 13.9556 21.4309 17.5472V20.6421H19.0604C18.7501 20.6421 18.4988 20.9162 18.5 21.2536L18.5114 24.4565C18.5126 24.792 18.7631 25.0633 19.0717 25.0633H21.4465Z" fill="white"/>
</g>
</g>
<defs>
<clipPath id="clip0_682_1452">
<rect width="48" height="48" fill="white"/>
</clipPath>
</defs>
</svg>
