<svg width="48" height="48" viewBox="0 0 48 48" fill="none" xmlns="http://www.w3.org/2000/svg">
<g clip-path="url(#clip0_682_1473)">
<mask id="mask0_682_1473" style="mask-type:luminance" maskUnits="userSpaceOnUse" x="0" y="0" width="48" height="48">
<path d="M25.4 0H22.6C10.1184 0 0 10.1184 0 22.6V25.4C0 37.8816 10.1184 48 22.6 48H25.4C37.8816 48 48 37.8816 48 25.4V22.6C48 10.1184 37.8816 0 25.4 0Z" fill="white"/>
</mask>
<g mask="url(#mask0_682_1473)">
<path d="M24 48C37.2548 48 48 37.2548 48 24C48 10.7452 37.2548 0 24 0C10.7452 0 0 10.7452 0 24C0 37.2548 10.7452 48 24 48Z" fill="#F62587"/>
<path d="M19.5135 32.5H15.7432V20.4595H19.5135V32.5ZM17.6892 18.8784C16.473 18.8784 15.5 17.9054 15.5 16.6892C15.5 15.473 16.473 14.5 17.6892 14.5C18.9054 14.5 19.8784 15.473 19.8784 16.6892C19.7568 17.9054 18.9054 18.8784 17.6892 18.8784ZM33.3784 32.5H29.6081V26.6622C29.6081 25.3243 29.6081 23.5 27.6622 23.5C25.7162 23.5 25.473 24.9595 25.473 26.5405V32.5H21.8243V20.4595H25.3514V22.0405C25.8378 21.0676 27.0541 20.0946 28.8784 20.0946C32.6486 20.0946 33.3784 22.527 33.3784 25.8108V32.5Z" fill="white"/>
</g>
</g>
<defs>
<clipPath id="clip0_682_1473">
<rect width="48" height="48" fill="white"/>
</clipPath>
</defs>
</svg>
