<svg width="48" height="48" viewBox="0 0 48 48" fill="none" xmlns="http://www.w3.org/2000/svg">
<g clip-path="url(#clip0_682_1461)">
<g clip-path="url(#clip1_682_1461)">
<mask id="mask0_682_1461" style="mask-type:luminance" maskUnits="userSpaceOnUse" x="0" y="0" width="48" height="48">
<path d="M25.4 0H22.6C10.1184 0 0 10.1184 0 22.6V25.4C0 37.8816 10.1184 48 22.6 48H25.4C37.8816 48 48 37.8816 48 25.4V22.6C48 10.1184 37.8816 0 25.4 0Z" fill="white"/>
</mask>
<g mask="url(#mask0_682_1461)">
<path d="M24 48C37.2548 48 48 37.2548 48 24C48 10.7452 37.2548 0 24 0C10.7452 0 0 10.7452 0 24C0 37.2548 10.7452 48 24 48Z" fill="#F62587"/>
</g>
<g clip-path="url(#clip2_682_1461)">
<path d="M25.8616 22.4686L33.147 14H31.4206L25.0947 21.3532L20.0423 14H14.2148L21.8551 25.1193L14.2148 34H15.9413L22.6216 26.2348L27.9574 34H33.7848L25.8612 22.4686H25.8616ZM23.497 25.2173L22.7228 24.1101L16.5634 15.2997H19.2152L24.1859 22.4099L24.9601 23.5172L31.4214 32.7594H28.7696L23.497 25.2177V25.2173Z" fill="white"/>
</g>
</g>
</g>
<defs>
<clipPath id="clip0_682_1461">
<rect width="48" height="48" fill="white"/>
</clipPath>
<clipPath id="clip1_682_1461">
<rect width="48" height="48" fill="white"/>
</clipPath>
<clipPath id="clip2_682_1461">
<rect width="20" height="20" fill="white" transform="translate(14 14)"/>
</clipPath>
</defs>
</svg>
